<svg xmlns="http://www.w3.org/2000/svg" xmlns:xlink="http://www.w3.org/1999/xlink" zoomAndPan="magnify" preserveAspectRatio="xMidYMid meet" version="1.0" viewBox="41.49 171.25 291.4 41.57"><defs><g/></defs><g fill="rgb(100%, 87.449646%, 42.349243%)" fill-opacity="1"><g transform="translate(36.834625, 203.249987)"><g><path d="M 25.160156 -17.0625 L 25.160156 -22.199219 L 4.65625 -14.496094 L 4.65625 -8.574219 L 25.160156 -0.871094 L 25.160156 -6.050781 L 9.707031 -11.578125 Z M 25.160156 -17.0625 "/></g></g></g><g fill="rgb(100%, 87.449646%, 42.349243%)" fill-opacity="1" ><g transform="translate(65.647173, 203.249987)"><g><path d="M 4.351562 1.304688 L 15.277344 -31.339844 L 10.707031 -31.339844 L -0.21875 1.304688 Z M 4.351562 1.304688 "/></g></g></g><g fill="rgb(100%, 87.449646%, 42.349243%)" fill-opacity="1" ><g transform="translate(80.706303, 203.249987)"><g><path d="M 26.769531 -31.996094 L 18.9375 -31.996094 L 18.9375 -20.242188 L 17.410156 -22.722656 C 16.238281 -23.417969 13.972656 -23.855469 12.058594 -23.855469 C 6.09375 -23.855469 1.042969 -19.371094 1.042969 -11.101562 C 1.042969 -4.222656 4.960938 0.609375 11.273438 0.609375 C 13.625 0.609375 15.886719 0.128906 17.195312 -0.828125 L 18.9375 -3.394531 L 18.9375 0 L 26.769531 0 Z M 13.972656 -4.703125 C 11.230469 -4.703125 9.054688 -7.140625 9.054688 -11.492188 C 9.054688 -16.238281 11.144531 -18.542969 14.191406 -18.542969 C 16.542969 -18.542969 18.9375 -16.976562 18.9375 -12.320312 L 18.9375 -11.316406 C 18.9375 -6.441406 16.847656 -4.703125 13.972656 -4.703125 Z M 13.972656 -4.703125 "/></g></g></g><g fill="rgb(100%, 87.449646%, 42.349243%)" fill-opacity="1" ><g transform="translate(109.823515, 203.249987)"><g><path d="M 25.117188 -11.925781 C 25.117188 -17.933594 21.199219 -23.855469 13.449219 -23.855469 C 5.703125 -23.855469 1.042969 -18.324219 1.042969 -11.535156 C 1.042969 -3.351562 6.355469 0.609375 13.015625 0.609375 C 18.980469 0.609375 23.332031 -2.351562 24.679688 -7.617188 L 16.976562 -7.617188 C 16.671875 -5.832031 15.324219 -4.703125 13.101562 -4.703125 C 10.882812 -4.703125 9.183594 -5.789062 8.792969 -9.664062 L 24.984375 -9.664062 C 25.074219 -10.445312 25.117188 -11.230469 25.117188 -11.925781 Z M 13.058594 -18.542969 C 15.148438 -18.542969 16.496094 -17.195312 16.933594 -14.453125 L 9.054688 -14.453125 C 9.578125 -17.324219 11.011719 -18.542969 13.058594 -18.542969 Z M 13.058594 -18.542969 "/></g></g></g><g fill="rgb(100%, 87.449646%, 42.349243%)" fill-opacity="1" ><g transform="translate(135.981137, 203.249987)"><g><path d="M 26.816406 -23.246094 L 18.238281 -23.246094 L 13.496094 -6.226562 L 8.707031 -23.246094 L 0 -23.246094 L 9.183594 0 L 17.628906 0 Z M 26.816406 -23.246094 "/></g></g></g><g fill="rgb(100%, 87.449646%, 42.349243%)" fill-opacity="1"><g transform="translate(162.443423, 203.249987)"><g><path d="M 12.277344 -10.230469 L 12.277344 -14.410156 L 1.394531 -14.410156 L 1.394531 -10.230469 Z M 12.277344 -10.230469 "/></g></g></g><g fill="rgb(100%, 87.449646%, 42.349243%)" fill-opacity="1" ><g transform="translate(176.109796, 203.249987)"><g><path d="M 26.769531 -23.246094 L 18.9375 -23.246094 L 18.9375 -20.242188 L 17.410156 -22.722656 C 16.238281 -23.417969 13.972656 -23.855469 12.058594 -23.855469 C 6.09375 -23.855469 1.042969 -19.71875 1.042969 -11.449219 C 1.042969 -4.570312 5.398438 -0.261719 11.710938 -0.261719 C 14.058594 -0.261719 15.886719 -0.738281 17.195312 -1.699219 L 18.9375 -4.265625 L 18.9375 -3.613281 C 18.9375 -2.351562 18.890625 -1.261719 18.847656 -0.566406 C 18.628906 2.566406 16.496094 3.832031 13.582031 3.832031 C 11.144531 3.832031 9.359375 2.960938 9.183594 1.4375 L 9.140625 1 L 1.566406 1 L 1.609375 1.4375 C 2.175781 6.746094 6.398438 9.578125 13.363281 9.578125 C 21.242188 9.578125 26.464844 6.179688 26.726562 -1.4375 C 26.769531 -2.699219 26.769531 -4.484375 26.769531 -5.921875 Z M 13.972656 -5.570312 C 11.230469 -5.570312 9.054688 -7.660156 9.054688 -12.015625 C 9.054688 -16.757812 11.144531 -18.542969 14.191406 -18.542969 C 16.542969 -18.542969 18.9375 -16.976562 18.9375 -12.320312 L 18.9375 -12.1875 C 18.9375 -7.3125 16.847656 -5.570312 13.972656 -5.570312 Z M 13.972656 -5.570312 "/></g></g></g><g fill="rgb(100%, 87.449646%, 42.349243%)" fill-opacity="1" ><g transform="translate(205.227008, 203.249987)"><g><path d="M 15.976562 0 L 23.636719 0 C 23.289062 -2.566406 23.203125 -4.136719 23.203125 -5.875 L 23.203125 -12.40625 C 23.203125 -13.84375 23.15625 -15.191406 23.070312 -16.367188 C 22.722656 -20.589844 20.199219 -23.855469 12.839844 -23.855469 C 6.964844 -23.855469 2.132812 -20.765625 2.089844 -15.324219 L 9.488281 -15.367188 C 9.621094 -17.367188 10.664062 -18.542969 12.492188 -18.542969 C 14.191406 -18.542969 15.148438 -17.5 15.277344 -16.324219 C 15.367188 -15.582031 15.367188 -15.105469 15.367188 -14.625 L 15.367188 -14.277344 L 13.886719 -14.277344 C 6.007812 -14.277344 1.304688 -11.230469 1.304688 -6.269531 C 1.304688 -1.785156 4.917969 0.609375 8.75 0.609375 C 10.882812 0.609375 12.839844 0.0859375 14.496094 -0.957031 L 15.453125 -3.394531 Z M 11.972656 -4.703125 C 10.402344 -4.703125 9.316406 -5.484375 9.316406 -6.878906 C 9.316406 -9.183594 11.839844 -10.097656 15.367188 -9.835938 L 15.367188 -8.3125 C 15.367188 -5.875 13.539062 -4.703125 11.972656 -4.703125 Z M 11.972656 -4.703125 "/></g></g></g><g fill="rgb(100%, 87.449646%, 42.349243%)" fill-opacity="1" ><g transform="translate(230.775301, 203.249987)"><g><path d="M 17.847656 -23.855469 C 15.496094 -23.855469 13.234375 -23.375 11.925781 -22.417969 L 10.1875 -19.851562 L 10.1875 -31.996094 L 2.351562 -31.996094 L 2.351562 0 L 10.1875 0 L 10.1875 -3.003906 L 11.710938 -0.523438 C 12.886719 0.175781 15.148438 0.609375 17.0625 0.609375 C 23.027344 0.609375 28.078125 -3.875 28.078125 -12.144531 C 28.078125 -19.023438 24.160156 -23.855469 17.847656 -23.855469 Z M 14.929688 -4.703125 C 12.582031 -4.703125 10.1875 -6.269531 10.1875 -10.925781 L 10.1875 -11.925781 C 10.1875 -16.800781 12.277344 -18.542969 15.148438 -18.542969 C 17.890625 -18.542969 20.066406 -16.105469 20.066406 -11.753906 C 20.066406 -7.007812 17.976562 -4.703125 14.929688 -4.703125 Z M 14.929688 -4.703125 "/></g></g></g><g fill="rgb(100%, 87.449646%, 42.349243%)" fill-opacity="1" ><g transform="translate(259.892502, 203.249987)"><g><path d="M 26.816406 -23.246094 L 18.238281 -23.246094 L 13.496094 -6.226562 L 8.707031 -23.246094 L 0 -23.246094 L 9.621094 1.042969 L 9.316406 1.699219 C 8.574219 3.351562 7.3125 3.960938 5.484375 3.960938 C 4.703125 3.960938 4.003906 3.960938 3.351562 3.875 L 3.351562 8.921875 C 4.484375 9.097656 5.398438 9.140625 6.660156 9.140625 C 12.1875 9.140625 14.714844 7.355469 17.628906 0 Z M 26.816406 -23.246094 "/></g></g></g><g fill="rgb(100%, 87.449646%, 42.349243%)" fill-opacity="1" ><g transform="translate(286.354788, 203.249987)"><g><path d="M 11.925781 -23.855469 C 5.746094 -23.855469 1.742188 -20.980469 1.742188 -16.367188 C 1.742188 -12.40625 4.398438 -10.359375 8.835938 -9.316406 C 12.972656 -8.359375 14.453125 -7.53125 14.453125 -6.050781 C 14.453125 -4.832031 13.363281 -4.265625 11.972656 -4.265625 C 10.316406 -4.265625 8.921875 -5.441406 8.488281 -7.226562 L 0.785156 -7.226562 C 1.394531 -2.003906 5.703125 0.609375 12.015625 0.609375 C 17.628906 0.609375 22.289062 -1.699219 22.289062 -6.660156 C 22.289062 -11.144531 19.285156 -12.972656 15.0625 -14.015625 C 10.621094 -15.105469 9.578125 -15.976562 9.578125 -17.28125 C 9.578125 -18.28125 10.359375 -18.980469 11.449219 -18.980469 C 12.839844 -18.980469 13.625 -18.066406 13.972656 -16.453125 L 21.679688 -16.453125 C 21.070312 -20.675781 17.714844 -23.855469 11.925781 -23.855469 Z M 11.925781 -23.855469 "/></g></g></g><g fill="rgb(100%, 87.449646%, 42.349243%)" fill-opacity="1" ><g transform="translate(309.335186, 203.249987)"><g><path d="M 23.550781 -14.496094 L 3.046875 -22.199219 L 3.046875 -17.019531 L 18.5 -11.535156 L 3.046875 -6.007812 L 3.046875 -0.871094 L 23.550781 -8.574219 Z M 23.550781 -14.496094 "/></g></g></g></svg>
